<svg xmlns="http://www.w3.org/2000/svg" width="26" height="26" viewBox="0 0 26 26">
  <defs>
    <style>
      .cls-1 {
        fill: #fff;
        fill-rule: evenodd;
      }
    </style>
  </defs>
  <path class="cls-1" d="M1199,1080a13,13,0,1,0,13,13A13.012,13.012,0,0,0,1199,1080Zm5.17,13.46-7.59,4.87a0.5,0.5,0,0,1-.29.09,0.594,0.594,0,0,1-.26-0.07,0.547,0.547,0,0,1-.28-0.48v-9.75a0.538,0.538,0,0,1,.83-0.45l7.59,4.87A0.548,0.548,0,0,1,1204.17,1093.46Z" transform="translate(-1186 -1080)"/>
</svg>
